<svg width="22" height="22" viewBox="0 0 22 22" fill="none" xmlns="http://www.w3.org/2000/svg">
    <path d="M22 11.2444C22 10.34 21.9251 9.68001 21.7631 8.99557H11.2245V13.0777H17.4104C17.2857 14.0922 16.6123 15.62 15.1156 16.6466L15.0946 16.7833L18.4267 19.313L18.6576 19.3356C20.7778 17.4167 22 14.5933 22 11.2444Z" fill="#4285F4"/>
    <path d="M11.2244 22C14.255 22 16.7992 21.0222 18.6575 19.3356L15.1155 16.6466C14.1677 17.2944 12.8956 17.7466 11.2244 17.7466C8.25617 17.7466 5.7369 15.8278 4.83886 13.1756L4.70722 13.1865L1.24245 15.8143L1.19714 15.9377C3.04293 19.531 6.83434 22 11.2244 22Z" fill="#34A853"/>
    <path d="M4.83897 13.1756C4.60201 12.4911 4.46487 11.7577 4.46487 11C4.46487 10.2422 4.60201 9.50886 4.8265 8.82443L4.82022 8.67866L1.31203 6.00867L1.19725 6.06217C0.436514 7.5533 0 9.22778 0 11C0 12.7722 0.436514 14.4466 1.19725 15.9377L4.83897 13.1756Z" fill="#FBBC05"/>
    <path d="M11.2244 4.2533C13.3321 4.2533 14.7538 5.14552 15.5645 5.89113L18.7323 2.86C16.7868 1.08778 14.255 0 11.2244 0C6.83434 0 3.04293 2.46887 1.19714 6.06217L4.82639 8.82443C5.7369 6.17221 8.25617 4.2533 11.2244 4.2533Z" fill="#EB4335"/>
</svg>
